<?xml version="1.0" encoding="UTF-8" standalone="no"?>
<!-- Created with Inkscape (http://www.inkscape.org/) -->
<svg
   xmlns:dc="http://purl.org/dc/elements/1.1/"
   xmlns:cc="http://creativecommons.org/ns#"
   xmlns:rdf="http://www.w3.org/1999/02/22-rdf-syntax-ns#"
   xmlns:svg="http://www.w3.org/2000/svg"
   xmlns="http://www.w3.org/2000/svg"
   xmlns:sodipodi="http://sodipodi.sourceforge.net/DTD/sodipodi-0.dtd"
   xmlns:inkscape="http://www.inkscape.org/namespaces/inkscape"
   width="690"
   height="455"
   id="svg3205"
   sodipodi:version="0.32"
   inkscape:version="0.46"
   sodipodi:docname="Physics_logo.svg"
   inkscape:output_extension="org.inkscape.output.svg.inkscape"
   version="1.0">
  <defs
     id="defs3207">
    <marker
       inkscape:stockid="Arrow1Lstart"
       orient="auto"
       refY="0"
       refX="0"
       id="Arrow1Lstart"
       style="overflow:visible">
      <path
         id="path3186"
         d="M 0,0 L 5,-5 L -12.5,0 L 5,5 L 0,0 z"
         style="fill-rule:evenodd;stroke:#000000;stroke-width:1pt;marker-start:none"
         transform="matrix(0.8,0,0,0.8,10,0)" />
    </marker>
    <inkscape:perspective
       sodipodi:type="inkscape:persp3d"
       inkscape:vp_x="0 : 526.18109 : 1"
       inkscape:vp_y="0 : 1000 : 0"
       inkscape:vp_z="744.09448 : 526.18109 : 1"
       inkscape:persp3d-origin="372.04724 : 350.78739 : 1"
       id="perspective3213" />
    <clipPath
       id="clipPath3109"
       clipPathUnits="userSpaceOnUse">
      <path
         id="path3111"
         d="M 0,0 L 726,0 L 726,66 L 0,66 L 0,0 z" />
    </clipPath>
    <clipPath
       id="clipPath3097"
       clipPathUnits="userSpaceOnUse">
      <path
         id="path3099"
         d="M 0,0.06 L 725.779,0.06 L 725.779,65.074 L 0,65.074 L 0,0.06 z" />
    </clipPath>
    <clipPath
       id="clipPath3081"
       clipPathUnits="userSpaceOnUse">
      <path
         id="path3083"
         d="M 0,0 L 726,0 L 726,66 L 0,66 L 0,0 z" />
    </clipPath>
    <inkscape:perspective
       id="perspective3071"
       inkscape:persp3d-origin="0.5 : 0.33333333 : 1"
       inkscape:vp_z="1 : 0.5 : 1"
       inkscape:vp_y="0 : 1000 : 0"
       inkscape:vp_x="0 : 0.5 : 1"
       sodipodi:type="inkscape:persp3d" />
    <clipPath
       id="clipPath3293"
       clipPathUnits="userSpaceOnUse">
      <path
         id="path3295"
         d="M 0,0 L 726,0 L 726,66 L 0,66 L 0,0 z" />
    </clipPath>
    <clipPath
       id="clipPath3281"
       clipPathUnits="userSpaceOnUse">
      <path
         id="path3283"
         d="M 0,0.06 L 725.779,0.06 L 725.779,65.074 L 0,65.074 L 0,0.06 z" />
    </clipPath>
    <clipPath
       id="clipPath3265"
       clipPathUnits="userSpaceOnUse">
      <path
         id="path3267"
         d="M 0,0 L 726,0 L 726,66 L 0,66 L 0,0 z" />
    </clipPath>
    <inkscape:perspective
       id="perspective3255"
       inkscape:persp3d-origin="0.5 : 0.33333333 : 1"
       inkscape:vp_z="1 : 0.5 : 1"
       inkscape:vp_y="0 : 1000 : 0"
       inkscape:vp_x="0 : 0.5 : 1"
       sodipodi:type="inkscape:persp3d" />
    <clipPath
       id="clipPath3017"
       clipPathUnits="userSpaceOnUse">
      <path
         id="path3019"
         d="M 0,0 L 726,0 L 726,66 L 0,66 L 0,0 z" />
    </clipPath>
    <clipPath
       id="clipPath3005"
       clipPathUnits="userSpaceOnUse">
      <path
         id="path3007"
         d="M 0,0.06 L 725.779,0.06 L 725.779,65.074 L 0,65.074 L 0,0.06 z" />
    </clipPath>
    <clipPath
       id="clipPath2989"
       clipPathUnits="userSpaceOnUse">
      <path
         id="path2991"
         d="M 0,0 L 726,0 L 726,66 L 0,66 L 0,0 z" />
    </clipPath>
    <inkscape:perspective
       id="perspective2979"
       inkscape:persp3d-origin="0.5 : 0.33333333 : 1"
       inkscape:vp_z="1 : 0.5 : 1"
       inkscape:vp_y="0 : 1000 : 0"
       inkscape:vp_x="0 : 0.5 : 1"
       sodipodi:type="inkscape:persp3d" />
  </defs>
  <sodipodi:namedview
     id="base"
     pagecolor="#ffffff"
     bordercolor="#666666"
     borderopacity="1.0"
     gridtolerance="10000"
     guidetolerance="10"
     objecttolerance="10"
     inkscape:pageopacity="0.0"
     inkscape:pageshadow="2"
     inkscape:zoom="1.6095373"
     inkscape:cx="354.24679"
     inkscape:cy="225.87655"
     inkscape:document-units="px"
     inkscape:current-layer="layer1"
     showgrid="false"
     inkscape:window-width="1280"
     inkscape:window-height="985"
     inkscape:window-x="483"
     inkscape:window-y="81">
    <inkscape:grid
       type="xygrid"
       id="grid2402"
       visible="true"
       enabled="true" />
  </sodipodi:namedview>
  <metadata
     id="metadata3210">
    <rdf:RDF>
      <cc:Work
         rdf:about="">
        <dc:format>image/svg+xml</dc:format>
        <dc:type
           rdf:resource="http://purl.org/dc/dcmitype/StillImage" />
      </cc:Work>
    </rdf:RDF>
  </metadata>
  <g
     inkscape:label="Layer 1"
     inkscape:groupmode="layer"
     id="layer1"
     transform="translate(-40,-512.36218)">
    <g
       id="g4916"
       transform="matrix(-1,0,0,-1,781.68728,1420.2578)">
      <path
         d="M 335.89997,670.29588 C 404.44772,623.44864 502.19364,580.18641 577.53296,561.90515 C 642.93008,546.03639 691.9006,547.09384 715.39848,562.53533 C 738.48879,577.70899 736.17459,614.03246 660.93246,670.41607 C 659.83634,670.83496 660.33888,670.81944 659.15319,670.69695 C 689.69377,633.57756 696.83959,602.66881 675.02864,586.83273 C 638.17165,560.07231 508.89915,583.51468 388.85896,654.69457 C 380.59779,659.59317 372.48219,664.77846 364.70035,670.10921 M 298.4686,670.04105 C 303.29972,666.59589 308.2661,663.16156 313.35756,659.74828 C 375.32818,618.20356 452.07304,580.41002 523.913,554.56132 C 595.75295,528.7126 679.04849,511.5612 695.15221,541.79494 C 654.49631,536.91214 591.57619,547.34364 519.65923,572.71642 C 453.92824,595.90675 381.30764,632.7142 327.03156,670.20632 M 259.7189,670.11832 C 308.5916,636.48167 374.06757,601.28964 444.58025,580.6739 C 388.05826,606.53269 332.81671,637.78588 287.75082,669.85846 M 442.68198,670.67054 C 450.03783,666.76703 457.08172,663.42884 462.89351,661.16625 C 529.46196,635.25051 558.65212,647.0348 555.3073,670.99971 C 538.39101,672.20815 527.05884,673.2819 503.78014,670.42406 C 501.36982,669.91307 498.58112,669.59136 495.39206,669.47544 C 493.01861,669.38917 489.82383,669.68527 486.05175,670.3036 M 405.89251,670.55348 C 460.3028,636.89254 535.34546,615.35423 572.18517,616.58484 C 614.94094,618.01307 620.76315,640.09049 601.73492,670.68904 C 597.63328,674.0046 576.17008,676.66327 567.26879,671.1374 C 567.47248,670.51184 567.66023,669.89023 567.83183,669.27268 C 576.30388,638.78435 525.8528,625.37422 441.00083,666.66135 C 438.85076,667.70753 436.58905,668.89035 434.25712,670.18186 M 372.38263,670.64041 C 391.42357,657.94702 412.72073,645.68279 433.45128,635.57185 C 562.80969,572.47967 664.8307,572.09971 670.48328,614.45624 C 672.48375,629.44636 663.84955,648.92711 646.69661,670.76216 C 628.48359,677.06659 638.15747,682.6156 613.53306,670.77446 C 640.68739,628.42275 625.31684,599.77728 550.38292,611.66789 C 509.6059,618.13844 444.97824,642.01732 398.67213,670.4962"
         style="fill:#999999;fill-opacity:1;fill-rule:evenodd;stroke:none;stroke-width:1.06016862px;stroke-linecap:butt;stroke-linejoin:miter;stroke-opacity:0.94117647"
         id="path4681" />
      <path
         sodipodi:nodetypes="cccscccccc"
         d="M 116.54179,773.34057 C 74.308495,822.07398 69.107699,856.75769 101.10735,876.27171 C 110.88074,883.48571 117.03682,892.40195 128.21087,895.28923 C 136.49476,896.83758 143.2314,897.43733 152.9719,897.82577 C 245.06157,901.49814 398.14815,854.35929 534.66812,775.83823 M 105.09274,773.90409 C 61.092704,827.22623 58.336926,865.17877 96.991607,885.47274 C 110.82782,887.87906 125.65407,890.80074 139.83883,890.04909 C 145.40155,889.75432 150.82687,889.52451 155.96232,889.28883 C 240.97902,892.3033 384.40376,848.8547 516.61186,775.78179"
         style="fill:none;fill-opacity:0.31045754;fill-rule:evenodd;stroke:#999999;stroke-width:5;stroke-linecap:butt;stroke-linejoin:miter;stroke-miterlimit:4;stroke-dasharray:none;stroke-dashoffset:0;stroke-opacity:1"
         id="path3168" />
    </g>
    <rect
       style="opacity:1;fill:#ffffff;fill-opacity:1;fill-rule:evenodd;stroke:none;stroke-width:0.88887697;stroke-linecap:butt;stroke-linejoin:miter;stroke-miterlimit:4;stroke-dasharray:none;stroke-dashoffset:0;stroke-opacity:1"
       id="rect4683"
       width="660"
       height="115.11112"
       x="66"
       y="663.87231" />
    <text
       xml:space="preserve"
       style="font-size:207.09428406px;font-style:normal;font-variant:normal;font-weight:normal;font-stretch:normal;text-align:start;line-height:125%;writing-mode:lr-tb;text-anchor:start;fill:#990000;fill-opacity:1;stroke:none;stroke-width:1px;stroke-linecap:butt;stroke-linejoin:miter;stroke-opacity:1;font-family:Georgia;-inkscape-font-specification:Georgia"
       x="40.520809"
       y="771.88086"
       id="text3235"
       sodipodi:linespacing="125%"><tspan
         sodipodi:role="line"
         id="tspan3237"
         x="40.520809"
         y="771.88086">Physics</tspan></text>
    <g
       id="g4850"
       transform="matrix(0.5,0,0,0.5,211.20597,290.50624)"
       style="stroke:none;stroke-opacity:1">
      <path
         inkscape:tile-y0="623.61221"
         inkscape:tile-x0="500.44644"
         d="M 527.23215,637.00507 A 13.392858,13.392858 0 1 1 500.44644,637.00507 A 13.392858,13.392858 0 1 1 527.23215,637.00507 z"
         sodipodi:ry="13.392858"
         sodipodi:rx="13.392858"
         sodipodi:cy="637.00507"
         sodipodi:cx="513.83929"
         id="use4834"
         style="fill:#900000;fill-opacity:1;fill-rule:evenodd;stroke:none;stroke-width:4;stroke-linecap:butt;stroke-linejoin:miter;stroke-miterlimit:4;stroke-dasharray:none;stroke-dashoffset:0;stroke-opacity:1"
         sodipodi:type="arc"
         transform="matrix(0.7071068,0.7071068,-0.7071068,0.7071068,627.71636,-130.37193)" />
      <path
         inkscape:tile-y0="623.61221"
         inkscape:tile-x0="500.44644"
         d="M 527.23215,637.00507 A 13.392858,13.392858 0 1 1 500.44644,637.00507 A 13.392858,13.392858 0 1 1 527.23215,637.00507 z"
         sodipodi:ry="13.392858"
         sodipodi:rx="13.392858"
         sodipodi:cy="637.00507"
         sodipodi:cx="513.83929"
         id="use4836"
         style="fill:#900000;fill-opacity:1;fill-rule:evenodd;stroke:none;stroke-width:4;stroke-linecap:butt;stroke-linejoin:miter;stroke-miterlimit:4;stroke-dasharray:none;stroke-dashoffset:0;stroke-opacity:1"
         sodipodi:type="arc"
         transform="matrix(0,1,-1,0,1204.4158,215.95149)" />
      <path
         inkscape:tile-y0="623.61221"
         inkscape:tile-x0="500.44644"
         d="M 527.23215,637.00507 A 13.392858,13.392858 0 1 1 500.44644,637.00507 A 13.392858,13.392858 0 1 1 527.23215,637.00507 z"
         sodipodi:ry="13.392858"
         sodipodi:rx="13.392858"
         sodipodi:cy="637.00507"
         sodipodi:cx="513.83929"
         id="use4838"
         style="fill:#900000;fill-opacity:1;fill-rule:evenodd;stroke:none;stroke-width:4;stroke-linecap:butt;stroke-linejoin:miter;stroke-miterlimit:4;stroke-dasharray:none;stroke-dashoffset:0;stroke-opacity:1"
         sodipodi:type="arc"
         transform="translate(53.57143,0)" />
      <path
         inkscape:tile-y0="623.61221"
         inkscape:tile-x0="500.44644"
         d="M 527.23215,637.00507 A 13.392858,13.392858 0 1 1 500.44644,637.00507 A 13.392858,13.392858 0 1 1 527.23215,637.00507 z"
         sodipodi:ry="13.392858"
         sodipodi:rx="13.392858"
         sodipodi:cy="637.00507"
         sodipodi:cx="513.83929"
         id="use4842"
         style="fill:#900000;fill-opacity:1;fill-rule:evenodd;stroke:none;stroke-width:4;stroke-linecap:butt;stroke-linejoin:miter;stroke-miterlimit:4;stroke-dasharray:none;stroke-dashoffset:0;stroke-opacity:1"
         sodipodi:type="arc"
         transform="matrix(0,1,-1,0,1257.9872,215.95149)" />
      <path
         inkscape:tile-y0="623.61221"
         inkscape:tile-x0="500.44644"
         d="M 527.23215,637.00507 A 13.392858,13.392858 0 1 1 500.44644,637.00507 A 13.392858,13.392858 0 1 1 527.23215,637.00507 z"
         sodipodi:ry="13.392858"
         sodipodi:rx="13.392858"
         sodipodi:cy="637.00507"
         sodipodi:cx="513.83929"
         id="use4844"
         style="fill:#900000;fill-opacity:1;fill-rule:evenodd;stroke:none;stroke-width:4;stroke-linecap:butt;stroke-linejoin:miter;stroke-miterlimit:4;stroke-dasharray:none;stroke-dashoffset:0;stroke-opacity:1"
         sodipodi:type="arc"
         transform="translate(107.14286,0)" />
      <path
         inkscape:tile-y0="623.61221"
         inkscape:tile-x0="500.44644"
         d="M 527.23215,637.00507 A 13.392858,13.392858 0 1 1 500.44644,637.00507 A 13.392858,13.392858 0 1 1 527.23215,637.00507 z"
         sodipodi:ry="13.392858"
         sodipodi:rx="13.392858"
         sodipodi:cy="637.00507"
         sodipodi:cx="513.83929"
         id="use4846"
         style="fill:#900000;fill-opacity:1;fill-rule:evenodd;stroke:none;stroke-width:4;stroke-linecap:butt;stroke-linejoin:miter;stroke-miterlimit:4;stroke-dasharray:none;stroke-dashoffset:0;stroke-opacity:1"
         sodipodi:type="arc"
         transform="matrix(0.7071068,0.7071068,-0.7071068,0.7071068,734.85922,-130.37193)" />
    </g>
    <path
       inkscape:tile-y0="623.61221"
       inkscape:tile-x0="500.44644"
       inkscape:tile-h="26.785715"
       inkscape:tile-w="26.785715"
       inkscape:tile-cy="637.00507"
       inkscape:tile-cx="513.83929"
       d="M 527.23215,637.00507 A 13.392858,13.392858 0 1 1 500.44644,637.00507 A 13.392858,13.392858 0 1 1 527.23215,637.00507 z"
       sodipodi:ry="13.392858"
       sodipodi:rx="13.392858"
       sodipodi:cy="637.00507"
       sodipodi:cx="513.83929"
       id="path4894"
       style="opacity:1;fill:#990000;fill-opacity:1;fill-rule:evenodd;stroke:none;stroke-width:2;stroke-linecap:butt;stroke-linejoin:miter;stroke-miterlimit:4;stroke-dasharray:none;stroke-dashoffset:0;stroke-opacity:1"
       sodipodi:type="arc"
       transform="translate(-5.2461834,-4.6844474)" />
    <g
       transform="matrix(0.9300352,0,0,-0.9300352,47.124232,958.13025)"
       inkscape:label="CMU_logo_horiz_RGB"
       id="g3257"
       style="fill:#990000;fill-opacity:1">
      <g
         id="g3259"
         style="fill:#990000;fill-opacity:1" />
      <g
         id="g3261"
         style="fill:#990000;fill-opacity:1">
        <g
           clip-path="url(#clipPath3265)"
           id="g3263"
           style="fill:#990000;fill-opacity:1">
          <path
             id="path3269"
             style="fill:#990000;fill-opacity:1;fill-rule:nonzero;stroke:none"
             d="M 37.108,63.396 L 35.921,63.396 C 35.853,62.011 35.127,61.416 33.741,61.416 C 30.967,61.416 26.477,64.782 21.724,64.782 C 8.188,64.782 0,51.446 0,39.695 C 0,27.877 7.792,16.191 20.865,16.191 C 28.789,16.191 31.761,19.955 33.872,19.955 C 35.26,19.955 36.052,18.237 36.316,17.248 L 37.307,17.248 L 37.307,33.423 L 36.316,33.423 L 35.921,31.179 C 34.995,25.829 30.043,17.38 21.525,17.38 C 13.998,17.38 11.093,24.444 11.093,40.488 C 11.093,57.322 15.055,63.595 21.724,63.595 C 29.251,63.595 34.864,54.549 35.921,47.816 L 37.108,47.816 L 37.108,63.396" />
          <path
             id="path3271"
             style="fill:#990000;fill-opacity:1;fill-rule:nonzero;stroke:none"
             d="M 73.116,22.85 L 71.941,22.85 C 71.941,21.155 71.226,19.202 69.663,19.202 C 68.491,19.202 68.166,20.44 68.166,22.458 L 68.166,37.439 C 68.166,44.865 61.196,46.689 54.487,46.689 C 47.973,46.689 43.22,43.497 43.22,39.85 C 43.22,37.57 44.522,35.617 47.452,35.617 C 49.928,35.617 51.425,37.245 51.425,39.524 C 51.425,42.651 48.17,42.455 48.104,43.563 C 48.04,44.995 51.816,45.517 54.032,45.517 C 58.915,45.517 59.566,43.107 59.566,39.199 L 59.566,33.728 L 53.184,33.207 C 47.257,32.75 40.809,31.188 40.809,24.414 C 40.809,18.745 45.891,16.468 50.905,16.468 C 53.445,16.468 57.939,17.444 59.632,20.57 C 60.805,17.835 63.216,16.468 66.146,16.468 C 70.38,16.468 73.116,19.006 73.116,22.85 M 59.566,24.998 C 59.437,21.546 57.482,18.422 54.422,18.422 C 49.992,18.422 49.799,22.458 49.799,25.847 C 49.799,29.3 50.189,31.577 54.422,32.033 L 59.566,32.555 L 59.566,24.998" />
          <path
             id="path3273"
             style="fill:#990000;fill-opacity:1;fill-rule:nonzero;stroke:none"
             d="M 73.481,17.248 L 92.959,17.248 L 92.959,18.422 L 86.967,18.422 L 86.967,35.042 C 86.967,40.061 88.529,43.58 92.633,45.404 L 92.894,45.404 C 91.787,44.232 91.329,43.189 91.329,41.561 C 91.329,39.017 93.22,37.324 95.76,37.324 C 98.886,37.324 100.712,39.604 100.712,42.08 C 100.712,45.211 98.625,47.101 95.564,47.101 C 91.395,47.101 88.203,44.232 86.967,40.973 L 86.836,40.973 L 86.836,47.621 C 85.467,45.927 80.647,45.927 77.977,45.927 L 73.481,45.927 L 73.481,44.754 L 77.977,44.754 L 77.977,18.422 L 73.481,18.422 L 73.481,17.248" />
          <path
             id="path3275"
             style="fill:#990000;fill-opacity:1;fill-rule:nonzero;stroke:none"
             d="M 101.727,17.248 L 119.05,17.248 L 119.05,18.422 L 115.208,18.422 L 115.208,36.281 C 115.208,39.604 118.465,44.364 122.111,44.364 C 124,44.364 125.955,43.58 125.955,39.017 L 125.955,18.422 L 122.241,18.422 L 122.241,17.248 L 139.435,17.248 L 139.435,18.422 L 134.939,18.422 L 134.939,36.606 C 134.939,43.645 131.945,46.709 125.759,46.709 C 121.395,46.709 117.097,44.427 115.339,40.647 L 115.208,40.647 L 115.208,47.621 C 113.841,45.927 109.021,45.927 106.351,45.927 L 101.727,45.927 L 101.727,44.754 L 106.222,44.754 L 106.222,18.422 L 101.727,18.422 L 101.727,17.248" />
        </g>
      </g>
      <g
         id="g3277"
         style="fill:#990000;fill-opacity:1">
        <g
           clip-path="url(#clipPath3281)"
           id="g3279"
           style="fill:#990000;fill-opacity:1">
          <path
             id="path3285"
             style="fill:#990000;fill-opacity:1;fill-rule:nonzero;stroke:none"
             d="M 148.922,33.01 L 166.903,33.01 C 166.838,40.045 160.321,46.819 153.482,46.689 C 145.796,46.689 139.15,40.045 139.15,31.252 C 139.15,22.785 145.339,16.468 153.678,16.468 C 161.69,16.468 165.665,21.417 167.098,27.865 L 165.926,27.865 C 164.492,21.808 160.715,18.028 155.633,18.028 C 149.574,18.028 148.922,23.11 148.922,27.54 L 148.922,33.01 L 148.922,33.01 z M 148.922,34.185 L 148.922,39.785 C 148.922,44.149 150.812,45.517 153.026,45.517 C 156.153,45.517 157.131,43.367 157.131,39.785 L 157.131,34.185 L 148.922,34.185" />
          <path
             id="path3287"
             style="fill:#990000;fill-opacity:1;fill-rule:nonzero;stroke:none"
             d="M 199.248,43.758 C 199.248,46.037 196.772,47.21 194.818,47.21 C 192.668,47.21 191.039,45.777 189.801,44.345 C 187.913,45.71 185.309,46.689 181.661,46.689 C 176.188,46.689 170.328,43.107 170.328,37.182 C 170.328,33.601 172.281,30.801 175.733,29.238 L 175.733,29.107 C 173.193,28.782 169.22,27.023 169.22,21.618 C 169.22,18.364 170.719,15.889 173.453,15.106 L 173.453,14.977 C 170.849,14.262 167.854,11.654 167.854,8.531 C 167.854,3.711 173.521,3.5527137e-15 180.748,3.5527137e-15 C 189.801,3.5527137e-15 195.729,6.123 195.729,14.066 C 195.729,20.382 192.604,23.247 186.221,23.115 L 175.408,23.115 C 173.778,23.115 171.564,23.183 171.564,24.94 C 171.564,26.567 174.366,28.327 176.841,28.327 C 177.557,28.327 178.273,28.131 178.99,27.934 C 179.771,27.675 180.618,27.543 181.661,27.543 C 187.263,27.543 193.254,30.735 193.254,36.921 C 193.254,39.004 192.276,41.935 190.455,43.497 C 191.626,44.672 192.213,46.105 194.751,46.428 L 194.751,46.298 C 193.384,45.582 192.993,44.734 192.993,43.433 C 192.993,41.935 194.036,40.437 195.988,40.437 C 198.073,40.437 199.248,42 199.248,43.758 M 174.494,14.912 L 184.721,14.912 C 191.235,14.912 193.384,14.326 193.384,10.354 C 193.384,5.601 187.523,1.173 180.945,1.173 C 175.081,1.173 171.891,5.146 171.761,8.269 C 171.761,11.134 172.736,13.023 174.494,14.912 M 185.828,37.182 C 185.764,29.173 184.07,28.718 181.726,28.718 C 179.121,28.718 177.753,29.564 177.753,37.377 C 177.753,42.651 178.339,45.517 181.726,45.517 C 184.788,45.517 185.764,44.672 185.828,37.182" />
        </g>
      </g>
      <g
         id="g3289"
         style="fill:#990000;fill-opacity:1">
        <g
           clip-path="url(#clipPath3293)"
           id="g3291"
           style="fill:#990000;fill-opacity:1">
          <path
             id="path3297"
             style="fill:#990000;fill-opacity:1;fill-rule:nonzero;stroke:none"
             d="M 200.264,17.248 L 218.251,17.248 L 218.251,18.422 L 213.755,18.422 L 213.755,47.621 C 212.386,45.927 207.563,45.927 204.892,45.927 L 200.264,45.927 L 200.264,44.754 L 204.76,44.754 L 204.76,18.422 L 200.264,18.422 L 200.264,17.248" />
          <path
             id="path3299"
             style="fill:#990000;fill-opacity:1;fill-rule:nonzero;stroke:none"
             d="M 204.607,56.002 C 204.607,53.418 206.673,51.353 209.259,51.353 C 211.841,51.353 213.908,53.418 213.908,56.002 C 213.908,58.585 211.841,60.651 209.259,60.651 C 206.673,60.651 204.607,58.585 204.607,56.002" />
          <path
             id="path3301"
             style="fill:#990000;fill-opacity:1;fill-rule:nonzero;stroke:none"
             d="M 228.023,33.01 L 246.002,33.01 C 245.937,40.045 239.421,46.819 232.581,46.689 C 224.895,46.689 218.25,40.045 218.25,31.252 C 218.25,22.785 224.438,16.468 232.776,16.468 C 240.788,16.468 244.765,21.417 246.195,27.865 L 245.024,27.865 C 243.592,21.808 239.814,18.028 234.732,18.028 C 228.674,18.028 228.023,23.11 228.023,27.54 L 228.023,33.01 L 228.023,33.01 z M 228.023,34.185 L 228.023,39.785 C 228.023,44.149 229.911,45.517 232.126,45.517 C 235.251,45.517 236.229,43.367 236.229,39.785 L 236.229,34.185 L 228.023,34.185" />
          <path
             id="path3303"
             style="fill:#990000;fill-opacity:1;fill-rule:nonzero;stroke:none"
             d="M 257.399,17.248 L 270.031,17.248 L 270.031,18.42 L 269.121,18.42 C 265.605,18.42 264.235,19.331 264.235,24.606 L 264.235,61.527 L 264.367,61.527 L 279.928,17.248 L 281.688,17.248 L 296.857,60.747 L 296.987,60.747 L 296.987,18.42 L 291.389,18.42 L 291.389,17.248 L 312.029,17.248 L 312.029,18.42 L 307.146,18.42 L 307.146,61.919 L 312.029,61.919 L 312.029,63.09 L 296.337,63.09 L 285.331,31.639 L 285.201,31.639 L 274.395,63.09 L 257.727,63.09 L 257.727,61.919 L 262.673,61.919 L 262.673,24.019 C 262.673,21.221 262.022,18.42 257.66,18.42 L 257.399,18.42 L 257.399,17.248" />
          <path
             id="path3305"
             style="fill:#990000;fill-opacity:1;fill-rule:nonzero;stroke:none"
             d="M 321.148,33.01 L 339.127,33.01 C 339.064,40.045 332.548,46.819 325.708,46.689 C 318.023,46.689 311.375,40.045 311.375,31.252 C 311.375,22.785 317.564,16.468 325.905,16.468 C 333.915,16.468 337.89,21.417 339.324,27.865 L 338.15,27.865 C 336.719,21.808 332.939,18.028 327.859,18.028 C 321.799,18.028 321.148,23.11 321.148,27.54 L 321.148,33.01 L 321.148,33.01 z M 321.148,34.185 L 321.148,39.785 C 321.148,44.149 323.036,45.517 325.251,45.517 C 328.38,45.517 329.357,43.367 329.357,39.785 L 329.357,34.185 L 321.148,34.185" />
          <path
             id="path3307"
             style="fill:#990000;fill-opacity:1;fill-rule:nonzero;stroke:none"
             d="M 339.298,17.248 L 357.284,17.248 L 357.284,18.42 L 352.787,18.42 L 352.787,65.074 C 351.615,63.12 348.029,63.12 343.402,63.12 L 339.298,63.12 L 339.298,61.945 L 343.794,61.945 L 343.794,18.42 L 339.298,18.42 L 339.298,17.248" />
          <path
             id="path3309"
             style="fill:#990000;fill-opacity:1;fill-rule:nonzero;stroke:none"
             d="M 358.432,17.248 L 376.419,17.248 L 376.419,18.42 L 371.923,18.42 L 371.923,65.074 C 370.75,63.12 367.165,63.12 362.54,63.12 L 358.432,63.12 L 358.432,61.945 L 362.927,61.945 L 362.927,18.42 L 358.432,18.42 L 358.432,17.248" />
          <path
             id="path3311"
             style="fill:#990000;fill-opacity:1;fill-rule:nonzero;stroke:none"
             d="M 406.683,31.577 C 406.683,40.502 399.779,46.689 391.181,46.689 C 382.584,46.689 375.679,40.502 375.679,31.577 C 375.679,22.655 382.584,16.468 391.181,16.468 C 399.779,16.468 406.683,22.655 406.683,31.577 M 396.522,24.543 C 396.522,19.658 394.503,17.638 391.181,17.638 C 387.861,17.638 385.839,19.658 385.839,24.543 L 385.839,38.612 C 385.839,43.497 387.861,45.517 391.181,45.517 C 394.503,45.517 396.522,43.497 396.522,38.612 L 396.522,24.543" />
          <path
             id="path3313"
             style="fill:#990000;fill-opacity:1;fill-rule:nonzero;stroke:none"
             d="M 406.724,17.248 L 424.047,17.248 L 424.047,18.422 L 420.207,18.422 L 420.207,36.281 C 420.207,39.604 423.462,44.364 427.11,44.364 C 428.998,44.364 430.952,43.58 430.952,39.017 L 430.952,18.422 L 427.24,18.422 L 427.24,17.248 L 444.433,17.248 L 444.433,18.422 L 439.938,18.422 L 439.938,36.606 C 439.938,43.645 436.943,46.709 430.755,46.709 C 426.393,46.709 422.095,44.427 420.335,40.647 L 420.207,40.647 L 420.207,47.621 C 418.837,45.927 414.018,45.927 411.349,45.927 L 406.724,45.927 L 406.724,44.754 L 411.218,44.754 L 411.218,18.422 L 406.724,18.422 L 406.724,17.248" />
          <path
             id="path3315"
             style="fill:#990000;fill-opacity:1;fill-rule:nonzero;stroke:none"
             d="M 453.507,61.919 L 458.585,61.919 L 458.585,32.42 C 458.585,22.328 465.552,16.205 476.166,16.205 C 488.148,16.205 493.357,22.522 493.357,32.095 L 493.357,56.449 C 493.357,60.225 494.4,61.919 496.744,61.919 L 498.438,61.919 L 498.438,63.09 L 485.544,63.09 L 485.544,61.919 L 487.433,61.919 C 490.753,61.919 491.796,60.225 491.796,56.449 L 491.796,31.704 C 491.796,22.849 486.455,18.551 480.138,18.551 C 470.63,18.551 468.744,24.932 468.744,33.267 L 468.744,61.919 L 474.019,61.919 L 474.019,63.09 L 453.507,63.09 L 453.507,61.919" />
          <path
             id="path3317"
             style="fill:#990000;fill-opacity:1;fill-rule:nonzero;stroke:none"
             d="M 495.9,17.248 L 513.222,17.248 L 513.222,18.422 L 509.38,18.422 L 509.38,36.281 C 509.38,39.604 512.636,44.364 516.283,44.364 C 518.173,44.364 520.126,43.58 520.126,39.017 L 520.126,18.422 L 516.415,18.422 L 516.415,17.248 L 533.607,17.248 L 533.607,18.422 L 529.113,18.422 L 529.113,36.606 C 529.113,43.645 526.119,46.709 519.933,46.709 C 515.566,46.709 511.269,44.427 509.511,40.647 L 509.38,40.647 L 509.38,47.621 C 508.015,45.927 503.193,45.927 500.523,45.927 L 495.9,45.927 L 495.9,44.754 L 500.392,44.754 L 500.392,18.422 L 495.9,18.422 L 495.9,17.248" />
          <path
             id="path3319"
             style="fill:#990000;fill-opacity:1;fill-rule:nonzero;stroke:none"
             d="M 534.558,17.248 L 552.546,17.248 L 552.546,18.422 L 548.05,18.422 L 548.05,47.621 C 546.681,45.927 541.857,45.927 539.185,45.927 L 534.558,45.927 L 534.558,44.754 L 539.058,44.754 L 539.058,18.422 L 534.558,18.422 L 534.558,17.248" />
          <path
             id="path3321"
             style="fill:#990000;fill-opacity:1;fill-rule:nonzero;stroke:none"
             d="M 538.902,56.002 C 538.902,53.418 540.97,51.353 543.554,51.353 C 546.136,51.353 548.201,53.418 548.201,56.002 C 548.201,58.585 546.136,60.651 543.554,60.651 C 540.97,60.651 538.902,58.585 538.902,56.002" />
          <path
             id="path3323"
             style="fill:#990000;fill-opacity:1;fill-rule:nonzero;stroke:none"
             d="M 565.744,16.468 L 567.503,16.468 L 577.144,39.265 C 578.772,42.912 580.14,44.672 581.636,44.734 L 582.224,44.734 L 582.224,45.907 L 572.063,45.907 L 572.063,44.734 L 573.302,44.734 C 575.189,44.734 576.296,44.02 576.296,42.325 C 576.296,41.282 575.972,39.85 575.189,38.027 L 570.761,27.605 L 563.142,44.734 L 567.048,44.734 L 567.048,45.907 L 550.701,45.907 L 550.701,44.734 L 553.501,44.734 L 565.744,16.468" />
          <path
             id="path3325"
             style="fill:#990000;fill-opacity:1;fill-rule:nonzero;stroke:none"
             d="M 589.371,33.01 L 607.352,33.01 C 607.287,40.045 600.772,46.819 593.931,46.689 C 586.246,46.689 579.599,40.045 579.599,31.252 C 579.599,22.785 585.787,16.468 594.128,16.468 C 602.14,16.468 606.115,21.417 607.546,27.865 L 606.375,27.865 C 604.943,21.808 601.165,18.028 596.083,18.028 C 590.023,18.028 589.82,23.11 589.82,27.54 L 589.371,33.01 L 589.371,33.01 z M 589.371,34.185 L 589.371,39.785 C 589.371,44.149 591.259,45.517 593.477,45.517 C 596.603,45.517 597.58,43.367 597.58,39.785 L 597.58,34.185 L 589.371,34.185" />
          <path
             id="path3327"
             style="fill:#990000;fill-opacity:1;fill-rule:nonzero;stroke:none"
             d="M 607.5,17.248 L 626.978,17.248 L 626.978,18.422 L 620.984,18.422 L 620.984,35.042 C 620.984,40.061 622.548,43.58 626.652,45.404 L 626.912,45.404 C 625.804,44.232 625.349,43.189 625.349,41.561 C 625.349,39.017 627.236,37.324 629.779,37.324 C 632.906,37.324 634.728,39.604 634.728,42.08 C 634.728,45.211 632.644,47.101 629.582,47.101 C 625.415,47.101 622.222,44.232 620.984,40.973 L 620.853,40.973 L 620.853,47.621 C 619.486,45.927 614.666,45.927 611.994,45.927 L 607.5,45.927 L 607.5,44.754 L 611.994,44.754 L 611.994,18.422 L 607.5,18.422 L 607.5,17.248" />
          <path
             id="path3329"
             style="fill:#990000;fill-opacity:1;fill-rule:nonzero;stroke:none"
             d="M 636.148,16.468 L 637.322,16.468 C 637.647,17.508 638.689,18.028 639.992,18.028 C 641.685,18.028 643.707,16.468 647.356,16.468 C 653.542,16.468 657.779,21.808 657.779,27.147 C 657.779,35.095 652.306,35.682 645.333,36.659 C 641.685,37.18 639.406,37.767 639.406,40.632 C 639.406,43.694 642.078,45.517 645.595,45.517 C 650.481,45.517 653.089,41.675 654.716,37.439 L 655.757,37.439 L 655.367,46.689 L 654.39,46.689 C 654.39,45.907 653.609,45.255 652.373,45.255 C 650.285,45.255 648.593,46.689 645.595,46.689 C 639.08,46.689 635.888,41.152 635.888,36.984 C 635.888,28.582 642.273,27.865 647.224,27.279 C 651.916,26.692 653.871,26.237 653.871,23.24 C 653.871,19.788 651.005,17.638 647.486,17.638 C 642.533,17.638 638.494,22.655 637.322,27.408 L 636.148,27.408 L 636.148,16.468" />
          <path
             id="path3331"
             style="fill:#990000;fill-opacity:1;fill-rule:nonzero;stroke:none"
             d="M 658.933,17.248 L 676.917,17.248 L 676.917,18.422 L 672.421,18.422 L 672.421,47.621 C 671.054,45.927 666.231,45.927 663.558,45.927 L 658.933,45.927 L 658.933,44.754 L 663.429,44.754 L 663.429,18.422 L 658.933,18.422 L 658.933,17.248" />
          <path
             id="path3333"
             style="fill:#990000;fill-opacity:1;fill-rule:nonzero;stroke:none"
             d="M 663.277,56.002 C 663.277,53.418 665.341,51.353 667.925,51.353 C 670.509,51.353 672.576,53.418 672.576,56.002 C 672.576,58.585 670.509,60.651 667.925,60.651 C 665.341,60.651 663.277,58.585 663.277,56.002" />
          <path
             id="path3335"
             style="fill:#990000;fill-opacity:1;fill-rule:nonzero;stroke:none"
             d="M 679.488,44.728 L 679.488,23.891 C 679.488,17.703 684.832,16.468 686.656,16.468 C 690.632,16.468 693.304,18.094 695.326,21.48 L 694.479,21.936 C 693.695,20.766 692.65,19.201 691.023,19.201 C 689.328,19.201 688.482,20.44 688.482,22.588 L 688.482,44.728 L 694.479,44.728 L 694.479,45.9 L 688.482,45.9 L 688.482,59.901 L 687.306,59.901 C 687.306,53 682.617,45.9 676.033,45.9 L 676.033,44.728 L 679.488,44.728" />
          <path
             id="path3337"
             style="fill:#990000;fill-opacity:1;fill-rule:nonzero;stroke:none"
             d="M 694.257,44.734 L 696.992,44.734 L 709.498,15.759 L 709.107,13.154 C 708.843,11.265 707.542,3.841 705.392,3.192 L 705.392,3.386 C 705.656,4.298 705.718,5.014 705.718,5.601 C 705.718,7.814 704.158,9.508 701.419,9.508 C 698.554,9.508 697.123,7.554 697.123,5.08 C 697.123,2.408 699.597,0.521 702.462,0.521 C 707.609,0.521 708.91,6.186 709.498,8.921 L 711.255,16.866 L 714.644,25.332 L 721.091,39.852 C 722.523,43.174 723.828,44.734 725.257,44.734 L 725.779,44.734 L 725.779,45.907 L 715.619,45.907 L 715.619,44.734 L 716.986,44.734 C 719.07,44.734 719.984,43.564 719.984,42.457 C 719.984,41.154 719.134,39.006 718.093,36.531 L 714.318,27.61 L 706.695,44.734 L 710.996,44.734 L 710.996,45.907 L 694.257,45.907 L 694.257,44.734" />
        </g>
      </g>
    </g>
  </g>
</svg>
